<svg width="111" height="35" viewBox="0 0 111 35" fill="none" xmlns="https://www.w3.org/2000/svg">
<path d="M4.43843 0.641602H0.369141V22.4425H5.1575V0.641602H4.43843Z" fill="white"/>
<path d="M25.4079 2.85643C24.766 1.98641 23.9354 1.28227 22.9822 0.799982C22.0289 0.317693 20.9792 0.0705652 19.9167 0.0782518C18.3877 0.0767253 16.913 0.660643 15.7805 1.71602V0.640129H10.9922V22.441H15.7805V11.2034C15.7805 6.6772 16.8784 4.75224 19.4528 4.75224C21.4358 4.75224 22.2886 6.37337 22.2886 10.1629V22.441H27.0769V10.9349C27.0769 6.58979 28.1505 4.73768 30.6662 4.73768C33.115 4.73768 33.5789 6.55026 33.5789 9.89655V22.441H38.3672V9.33051C38.3672 1.68064 34.5451 0.0761719 31.3407 0.0761719C28.8857 0.078253 26.7508 1.10212 25.4079 2.85643Z" fill="white"/>
<path d="M58.6601 0.640129V2.53387C56.9754 0.958138 54.7807 0.0821636 52.5024 0.0761719C46.5737 0.0761719 42.2715 4.91457 42.2715 11.5822C42.2715 18.0916 46.6507 23.0028 52.4599 23.0028C54.8906 23.0028 56.9708 22.1954 58.6601 20.6305V22.4389H63.4484V0.640129H58.6601ZM52.9238 18.3497C48.9517 18.3497 47.1429 14.712 47.1429 11.3303C47.1429 8.13808 49.1542 4.74392 52.8812 4.74392C56.989 4.74392 58.8282 8.07357 58.8282 11.374C58.8282 14.841 57.0032 18.3497 52.9238 18.3497Z" fill="white"/>
<path d="M77.0571 33.7048H77.2232C80.5693 33.7048 83.5671 32.2939 85.4488 29.8341C87.6222 26.9498 87.6222 23.8844 87.6222 20.6401V0.564421H82.8339V2.41654C81.169 0.841088 78.9821 -0.0229462 76.7188 0.000463547C70.861 0.000463547 66.4453 4.9658 66.4453 11.5502C66.4453 18.0367 70.8063 22.9272 76.5912 22.9272C78.8843 22.9273 81.1006 22.0784 82.8339 20.5361V21.2457C82.8339 26.7126 81.1446 29.0454 77.1806 29.0454H77.0571V33.7048ZM77.0976 18.2677C73.1255 18.2677 71.3187 14.628 71.3187 11.2484C71.3187 8.05405 73.3281 4.65989 77.055 4.65989C81.1628 4.65989 83.002 7.98954 83.002 11.29C83.0101 14.7633 81.1871 18.2677 77.0976 18.2677Z" fill="white"/>
<path d="M106.729 13.9532L106.379 14.6046C104.975 17.2121 103.257 18.4274 100.975 18.4274C97.9018 18.4274 95.5887 16.2216 95.2423 13.0875H110.703L110.742 12.4008C110.758 12.1136 110.764 11.8264 110.764 11.5434C110.764 8.26161 109.707 5.25036 107.805 3.18181C105.982 1.20483 103.508 0.160156 100.638 0.160156C97.4886 0.160156 94.8352 1.37132 92.9696 3.66253C91.2621 5.75605 90.3223 8.67574 90.3223 11.8826C90.3223 18.3754 94.6974 23.0869 100.721 23.0869C104.975 23.0869 108.439 20.9205 110.49 16.9895L110.815 16.3651L106.729 13.9532ZM100.681 4.82375C102.909 4.82375 104.882 6.43863 105.587 8.69238H95.5684C96.2652 6.48857 98.4041 4.82375 100.681 4.82375Z" fill="white"/>
<path d="M2.90462 30.2128C2.66973 30.005 2.37192 29.8873 2.06199 29.8799C1.82906 29.8799 1.51712 30.0214 1.51712 30.2961C1.51712 30.5708 1.86146 30.7123 2.08022 30.7747L2.40431 30.8746C3.08489 31.0827 3.6095 31.4344 3.6095 32.246C3.6095 32.7454 3.49404 33.2594 3.10514 33.5986C2.71066 33.918 2.21969 34.0852 1.71765 34.071C1.10165 34.065 0.502228 33.8653 0 33.4988L0.544869 32.4458C0.846136 32.7554 1.24765 32.9406 1.67309 32.966C1.97084 32.966 2.28075 32.812 2.28075 32.4603C2.28075 32.1086 1.78045 31.9671 1.50902 31.888C0.710964 31.655 0.186352 31.4406 0.186352 30.4688C0.186352 29.4491 0.893261 28.7852 1.87159 28.7852C2.4065 28.7957 2.93108 28.9384 3.40087 29.2014L2.90462 30.2128Z" fill="#B3B3B3"/>
<path d="M10.2344 28.9282H11.7576L12.6711 30.2933L13.5846 28.9282H15.1078L13.3071 31.5399V33.958H12.0351V31.5399L10.2344 28.9282Z" fill="#B3B3B3"/>
<path d="M24.6428 30.212C24.408 30.0038 24.1101 29.8861 23.8001 29.879C23.5672 29.879 23.2573 30.0205 23.2573 30.2952C23.2573 30.5699 23.5996 30.7114 23.8204 30.7738L24.1445 30.8737C24.8251 31.0818 25.3497 31.4335 25.3497 32.2451C25.3497 32.7446 25.2342 33.2586 24.8453 33.5978C24.453 33.9211 23.9627 34.0927 23.4598 34.0827C22.8438 34.077 22.2442 33.8773 21.7422 33.5104L22.2871 32.4574C22.5876 32.7669 22.9884 32.9521 23.4133 32.9776C23.713 32.9776 24.0209 32.8236 24.0209 32.4719C24.0209 32.1203 23.5226 31.9787 23.2512 31.8997C22.4531 31.6666 21.9285 31.4522 21.9285 30.4804C21.9285 29.4607 22.6354 28.7969 23.6138 28.7969C24.1487 28.8073 24.6733 28.95 25.1431 29.2131L24.6428 30.212Z" fill="#B3B3B3"/>
<path d="M34.4561 33.958H33.182V30.0353H32.1328V28.9282H35.5033V30.0353H34.452L34.4561 33.958Z" fill="#B3B3B3"/>
<path d="M43.7954 30.0353V30.8677H45.2295V31.9727H43.7954V32.8384H45.3064V33.958H42.5254V28.9282H45.3064V30.0353H43.7954Z" fill="#B3B3B3"/>
<path d="M53.1877 28.9282H54.4497L55.4401 31.6127L56.4914 28.9282H57.7553L58.4845 33.958H57.2125L56.856 31.0696H56.8438L55.665 33.958H55.1586L54.0445 31.0612H54.0304L53.6253 33.9497H52.3613L53.1877 28.9282Z" fill="#B3B3B3"/>
<path d="M68.2639 30.2128C68.0292 30.0047 67.7313 29.8869 67.4213 29.8799C67.1884 29.8799 66.8784 30.0214 66.8784 30.2961C66.8784 30.5708 67.2208 30.7123 67.4416 30.7747L67.7656 30.8746C68.4462 31.0827 68.9708 31.4344 68.9708 32.246C68.9708 32.7454 68.8554 33.2594 68.4665 33.5987C68.072 33.918 67.581 34.0852 67.079 34.0711C66.4629 34.0654 65.8634 33.8656 65.3613 33.4988L65.9062 32.4458C66.2067 32.7553 66.6076 32.9405 67.0324 32.966C67.3322 32.966 67.6401 32.812 67.6401 32.4603C67.6401 32.1086 67.1418 31.9671 66.8704 31.888C66.0723 31.655 65.5477 31.4406 65.5477 30.4688C65.5477 29.4491 66.2546 28.7852 67.2329 28.7852C67.7678 28.7957 68.2924 28.9384 68.7622 29.2014L68.2639 30.2128Z" fill="#B3B3B3"/>
</svg>
